<?xml version="1.0" encoding="utf-8"?>
<!-- Generator: Adobe Illustrator 25.0.1, SVG Export Plug-In . SVG Version: 6.00 Build 0)  -->
<svg version="1.1" id="Layer_1" xmlns="http://www.w3.org/2000/svg" xmlns:xlink="http://www.w3.org/1999/xlink" x="0px" y="0px"
	 viewBox="0 0 2000 2000" style="enable-background:new 0 0 2000 2000;" xml:space="preserve">
<style type="text/css">
	.st0{opacity:0.32;fill:#59BA55;}
	.st1{fill:#2E9C3F;}
	.st2{fill:#248B38;}
	.st3{fill:#39B54A;}
	.st4{fill:#18792F;}
	.st5{fill:#096826;}
	.st6{fill:#00591D;}
</style>
<circle class="st0" cx="1023.35" cy="941.46" r="741.55"/>
<path class="st1" d="M516.27,674.56c-20.34,21.14-21.82,50.21-22.81,69.62c-1.16,22.83-3.7,72.67,22.81,88.83
	c22.4,13.65,55.14-3.07,85.23-19.21c146.41-78.53,196.86-117.64,196.86-117.64c76.07-58.97,136.56-106.32,207.66-183.66
	c60.95-66.3,88.41-109.74,99.63-163.25c5.56-26.53,15.1-75.52-13.2-110.43c-19.46-24-49.41-32.23-58.82-34.81
	c-22.29-6.12-39.62-4.43-69.62-1.2c-39.36,4.24-67.31,3.8-88.94,11.81c-7.43,2.75,22.08,15.79,36.13,36.21
	c2.97,4.32,12.77,19.88,9.6,54.02c-5.38,58.07-42.48,107.52-54.02,122.44c-59.01,76.29-124.9,122.69-156.05,142.84
	c-76.23,49.32-114.35,73.98-148.84,81.62C553.24,653.67,532.5,657.68,516.27,674.56z"/>
<path class="st2" d="M504.62,931.53c-16.16,5.78-21.73,21.73-21.73,21.73c-4.13,11.63-2.35,59.71,9.92,92.87
	c3.31,8.94,1.83,32.41,33.55,45.44c22.46,9.23,38.14,6.22,57.3,0.75c68.68-19.6,348.11-143.85,375.41-164.44
	c96.51-72.79,70.47-51.8,154.99-129.69c92.11-84.89,143.56-160.83,178.85-213.66c56.11-84,67.84-122.89,70.82-159.65
	c1.85-22.73,35.51-128.78-14.95-149.93c-111.47-46.71-172.45-66.48-207.04-67.13c-2.91-0.05,17.15,14.02,38.33,37.01
	c3.08,3.35,25.59,28.34,31.21,62.42c6.72,40.74-13.69,75.51-26.41,96.03c-42.62,68.73-94.68,155.52-152.71,214.17
	C985.46,664.66,852.37,807.05,504.62,931.53z"/>
<path class="st3" d="M646.74,335.02c3.11,8.58-1.29,17.66-3.87,22.8c-11.94,23.83-40.41,38.06-45.22,61.46
	c-3.25,15.8,5.56,29.58,17.78,48.7c9.94,15.55,25.14,39.34,46.77,41.74c10.37,1.15,21.34-2.71,60.68-41.74
	c37.07-36.78,59.96-59.85,81.94-99.34c22.21-39.89,23-59.73,22.03-71.51c-0.64-7.72-2.94-35.65-22.03-45.61
	c-6.83-3.56-14.91-13.55-19.97-12.44c-19.46,4.26-27.39,8.85-50.8,19.36c-56.01,25.16-65.84,33.81-76.53,37.83
	c-6.55,2.46-12.81,4.26-23.63,14C632.24,311.79,645.67,332.07,646.74,335.02z"/>
<path class="st4" d="M1423.07,316.75c-2.28,2.43,10.91,33.12,22.08,61.09c7.24,18.13,10.42,40.1,4.43,78.25
	c-10.38,66.07-37.98,115.07-43.55,124.76c-59.88,104.17-129.47,180.67-142.68,195.04c-31.41,34.17-99.54,105.08-200.28,181.95
	c-18.93,14.44-97.47,73.71-210.75,136.14c-57.62,31.76-137.43,75.26-235.62,106.03c-59.18,18.54-88.76,27.81-108.65,28.8
	c-39.68,1.97-39.61,8.97-71.74,16.38c-12.42,2.87-16.79,14.32-18.53,19.77c-10.65,33.25,0.81,68.18,8.65,82.78
	c6.64,12.36,34.48,47.44,72.9,63.01c45.8,18.57,66.15,2.58,96.96-8.94c215.82-80.69,163.09-44.85,260.81-91.2
	c128.52-60.97,221.82-123.96,268.01-156.8c45.24-32.17,122.15-90.07,208-173.6c106.22-103.35,159.46-181.09,191.2-235.2
	c13.04-22.24,40.03-65.61,61.64-122.74c18.66-49.32,44.95-103.37,18.06-142.09c-22.02-31.71-45.65-53.4-91.42-95.99
	C1472.06,346.49,1426.35,313.25,1423.07,316.75z"/>
<path class="st5" d="M1650.24,545.19c-2.85,1.58-3.17,39.56,1.34,81.6c5.62,52.37-17.35,95.1-31.79,120.82
	c-61.43,109.35-92.14,164.03-157.35,236.61c-20.51,22.83-110.02,120.98-254.09,223.79c-107.42,76.65-198.56,122.63-258.75,152.69
	c-101.76,50.81-152.64,76.22-179.49,78.09c0,0-68.86,4.8-116.56,37.3c-6.81,4.64-17.09,12.54-20.98,25.64
	c-5.81,19.57,6.27,38.51,15.15,52.45c5.97,9.37,21.92,33.68,52.45,46.62c31.4,13.31,61.3,7.42,79.26,3.5
	c133.35-29.15,193.48-61.77,193.48-61.77c177.17-96.12,273.9-164.34,273.9-164.34c122.22-86.19,209.19-148.26,304.21-251.76
	c0,0,78.6-85.61,136.37-203.97c13.87-28.41,27.96-61.9,32.64-106.07c4.87-46,15.24-85.36,8.97-103.49
	C1696.05,617.6,1654.85,542.64,1650.24,545.19z"/>
<path class="st6" d="M1759.86,854.52c-4.11,0.23-13.78,42.58-25.79,92.44c-10.3,42.74-28.05,77.46-57.58,122.19
	c-25.66,38.87-67.5,100.77-143.25,174.15c-93.56,90.65-123.59,96.91-179.77,147.47c-26.98,24.28-63.86,47.56-102.52,80.05
	c-11.67,9.81-24.91,21.77-28.09,40.73c-2.86,17.03,2.77,37.52,16.85,49.16c19.61,16.21,48.06,9.02,66.01,4.21
	c51.85-13.89,79.06-45.66,125-87.08c59.3-53.46,54.61-37.17,108.14-85.67c39.2-35.51,117.19-107.46,175.56-223.31
	c16.94-33.63,33.72-61.3,40.73-103.93C1774.78,945.47,1766.92,854.12,1759.86,854.52z"/>
</svg>
